<svg xmlns="http://www.w3.org/2000/svg" height="533.333" width="933.333">
  <defs>
    <clipPath id="a">
      <path d="M2378.51 2574.41c-16.54 16-27.65 36.8-31.74 59.45a70.054 70.054 0 0 1-20.2 37.84 70.041 70.041 0 0 1-38.48 18.95 110.02 110.02 0 0 0-60.46 29.78l7.77-6.84a110.034 110.034 0 0 0-37.19 56.18 69.94 69.94 0 0 1-23.66 35.75 69.945 69.945 0 0 1-40.07 15.25c-22.98 1.2-45.01 9.59-62.98 23.96l8.42-6.1a109.955 109.955 0 0 0-42.31 52.37 70.009 70.009 0 0 1-68.22 44.72 110.05 110.05 0 0 0-64.89 17.92l9.27-5.45a109.95 109.95 0 0 0-47.2 47.96 70.09 70.09 0 0 1-30.04 30.53 70.023 70.023 0 0 1-42.19 7.31c-22.76-3.19-45.95.83-66.31 11.49l10.39-4.77c-21.38 8.5-39.56 23.5-51.97 42.88a70.067 70.067 0 0 1-33.08 27.29 69.992 69.992 0 0 1-42.78 2.87 110.12 110.12 0 0 0-67.23 4.53l11.8-3.94a110.055 110.055 0 0 0-56.55 36.83 70.053 70.053 0 0 1-36 23.44 70.078 70.078 0 0 1-42.9-2 110.14 110.14 0 0 0-67.42-3.13l13.39-2.76a110.041 110.041 0 0 0-60.48 29.33 70.04 70.04 0 0 1-38.49 18.67 69.991 69.991 0 0 1-42.16-7.22 110.106 110.106 0 0 0-66.25-11.33l15-1.09c-23.04.1-45.47 7.43-64.12 20.96a70.07 70.07 0 0 1-40.81 13.33 70.018 70.018 0 0 1-40.92-12.99 110.048 110.048 0 0 0-64.294-20.42l16.285 1.15c-22.695-3.3-45.859.58-66.242 11.09a69.997 69.997 0 0 1-42.156 7.05 69.958 69.958 0 0 1-38.398-18.76 109.95 109.95 0 0 0-60.344-29.49l16.769 3.79a109.977 109.977 0 0 0-67.472.74 70.05 70.05 0 0 1-42.938.47 70.092 70.092 0 0 1-35.133-24.69 109.921 109.921 0 0 0-55.207-38.79l16.094 6.42a109.963 109.963 0 0 0-66.582-9.9 70.012 70.012 0 0 1-73.137-36.1 109.951 109.951 0 0 0-48.347-46.83L200 1000h2800v1320z"/>
    </clipPath>
    <clipPath id="b">
      <path d="M2378.51 2574.41c-16.54 16-27.65 36.8-31.74 59.45a70.054 70.054 0 0 1-20.2 37.84 70.041 70.041 0 0 1-38.48 18.95 110.02 110.02 0 0 0-60.46 29.78l7.77-6.84a110.034 110.034 0 0 0-37.19 56.18 69.94 69.94 0 0 1-23.66 35.75 69.945 69.945 0 0 1-40.07 15.25c-22.98 1.2-45.01 9.59-62.98 23.96l8.42-6.1a109.955 109.955 0 0 0-42.31 52.37 70.009 70.009 0 0 1-68.22 44.72 110.05 110.05 0 0 0-64.89 17.92l9.27-5.45a109.95 109.95 0 0 0-47.2 47.96 70.09 70.09 0 0 1-30.04 30.53 70.023 70.023 0 0 1-42.19 7.31c-22.76-3.19-45.95.83-66.31 11.49l10.39-4.77c-21.38 8.5-39.56 23.5-51.97 42.88a70.067 70.067 0 0 1-33.08 27.29 69.992 69.992 0 0 1-42.78 2.87 110.12 110.12 0 0 0-67.23 4.53l11.8-3.94a110.055 110.055 0 0 0-56.55 36.83 70.053 70.053 0 0 1-36 23.44 70.078 70.078 0 0 1-42.9-2 110.14 110.14 0 0 0-67.42-3.13l13.39-2.76a110.041 110.041 0 0 0-60.48 29.33 70.04 70.04 0 0 1-38.49 18.67 69.991 69.991 0 0 1-42.16-7.22 110.106 110.106 0 0 0-66.25-11.33l15-1.09c-23.04.1-45.47 7.43-64.12 20.96a70.07 70.07 0 0 1-40.81 13.33 70.018 70.018 0 0 1-40.92-12.99 110.048 110.048 0 0 0-64.294-20.42l16.285 1.15c-22.695-3.3-45.859.58-66.242 11.09a69.997 69.997 0 0 1-42.156 7.05 69.958 69.958 0 0 1-38.398-18.76 109.95 109.95 0 0 0-60.344-29.49l16.769 3.79a109.977 109.977 0 0 0-67.472.74 70.05 70.05 0 0 1-42.938.47 70.092 70.092 0 0 1-35.133-24.69 109.921 109.921 0 0 0-55.207-38.79l16.094 6.42a109.963 109.963 0 0 0-66.582-9.9 70.012 70.012 0 0 1-73.137-36.1 109.951 109.951 0 0 0-48.347-46.83L200 1000h2800v1320z"/>
    </clipPath>
    <clipPath id="c">
      <path d="M1980 2550c0-220.91-179.09-400-400-400s-400 179.09-400 400 179.09 400 400 400 400-179.09 400-400"/>
    </clipPath>
    <clipPath id="d">
      <path d="M2378.51 2574.41c-16.54 16-27.65 36.8-31.74 59.45a70.054 70.054 0 0 1-20.2 37.84 70.041 70.041 0 0 1-38.48 18.95 110.02 110.02 0 0 0-60.46 29.78l7.77-6.84a110.034 110.034 0 0 0-37.19 56.18 69.94 69.94 0 0 1-23.66 35.75 69.945 69.945 0 0 1-40.07 15.25c-22.98 1.2-45.01 9.59-62.98 23.96l8.42-6.1a109.955 109.955 0 0 0-42.31 52.37 70.009 70.009 0 0 1-68.22 44.72 110.05 110.05 0 0 0-64.89 17.92l9.27-5.45a109.95 109.95 0 0 0-47.2 47.96 70.09 70.09 0 0 1-30.04 30.53 70.023 70.023 0 0 1-42.19 7.31c-22.76-3.19-45.95.83-66.31 11.49l10.39-4.77c-21.38 8.5-39.56 23.5-51.97 42.88a70.067 70.067 0 0 1-33.08 27.29 69.992 69.992 0 0 1-42.78 2.87 110.12 110.12 0 0 0-67.23 4.53l11.8-3.94a110.055 110.055 0 0 0-56.55 36.83 70.053 70.053 0 0 1-36 23.44 70.078 70.078 0 0 1-42.9-2 110.14 110.14 0 0 0-67.42-3.13l13.39-2.76a110.041 110.041 0 0 0-60.48 29.33 70.04 70.04 0 0 1-38.49 18.67 69.991 69.991 0 0 1-42.16-7.22 110.106 110.106 0 0 0-66.25-11.33l15-1.09c-23.04.1-45.47 7.43-64.12 20.96a70.07 70.07 0 0 1-40.81 13.33 70.018 70.018 0 0 1-40.92-12.99 110.048 110.048 0 0 0-64.294-20.42l16.285 1.15c-22.695-3.3-45.859.58-66.242 11.09a69.997 69.997 0 0 1-42.156 7.05 69.958 69.958 0 0 1-38.398-18.76 109.95 109.95 0 0 0-60.344-29.49l16.769 3.79a109.977 109.977 0 0 0-67.472.74 70.05 70.05 0 0 1-42.938.47 70.092 70.092 0 0 1-35.133-24.69 109.921 109.921 0 0 0-55.207-38.79l16.094 6.42a109.963 109.963 0 0 0-66.582-9.9 70.012 70.012 0 0 1-73.137-36.1 109.951 109.951 0 0 0-48.347-46.83L200 1000h2800v1320z"/>
    </clipPath>
    <clipPath id="e">
      <path d="M4621.49 2574.41c16.54 16 27.65 36.8 31.74 59.45a70.054 70.054 0 0 0 20.2 37.84 70.041 70.041 0 0 0 38.48 18.95 110.02 110.02 0 0 1 60.46 29.78l-7.77-6.84a110.034 110.034 0 0 1 37.19 56.18 69.94 69.94 0 0 0 23.66 35.75 69.945 69.945 0 0 0 40.07 15.25c22.98 1.2 45.01 9.59 62.98 23.96l-8.42-6.1a109.955 109.955 0 0 1 42.31 52.37 70.009 70.009 0 0 0 68.22 44.72 110.05 110.05 0 0 1 64.89 17.92l-9.27-5.45a109.95 109.95 0 0 1 47.2 47.96 70.09 70.09 0 0 0 30.04 30.53 70.023 70.023 0 0 0 42.19 7.31c22.76-3.19 45.95.83 66.31 11.49l-10.39-4.77c21.38 8.5 39.56 23.5 51.97 42.88a70.067 70.067 0 0 0 33.08 27.29 69.992 69.992 0 0 0 42.78 2.87 110.12 110.12 0 0 1 67.23 4.53l-11.8-3.94a110.055 110.055 0 0 1 56.55 36.83 70.053 70.053 0 0 0 36 23.44 70.078 70.078 0 0 0 42.9-2c21.59-8.07 45.17-9.17 67.42-3.13l-13.39-2.76a110.074 110.074 0 0 1 60.48 29.33 70.04 70.04 0 0 0 38.49 18.67c14.46 2.05 29.2-.47 42.16-7.22a110.106 110.106 0 0 1 66.25-11.33l-15-1.09c23.04.1 45.47 7.43 64.12 20.96a70.07 70.07 0 0 0 40.81 13.33c14.66.06 28.98-4.48 40.92-12.99a110.034 110.034 0 0 1 64.29-20.42l-16.28 1.15c22.69-3.3 45.86.58 66.24 11.09a70.012 70.012 0 0 0 42.16 7.05 69.977 69.977 0 0 0 38.4-18.76 109.899 109.899 0 0 1 60.34-29.49l-16.77 3.79a109.97 109.97 0 0 1 67.47.74 70.057 70.057 0 0 0 42.94.47c14-4.35 26.3-12.99 35.13-24.69 13.89-18.4 33.2-31.97 55.21-38.79l-16.09 6.42a109.946 109.946 0 0 1 66.58-9.9c14.43 2.38 29.25.17 42.37-6.3a70.02 70.02 0 0 0 30.76-29.8 110.005 110.005 0 0 1 48.35-46.83L6800 1000H4000v1320z"/>
    </clipPath>
    <clipPath id="f">
      <path d="M4621.49 2574.41c16.54 16 27.65 36.8 31.74 59.45a70.054 70.054 0 0 0 20.2 37.84 70.041 70.041 0 0 0 38.48 18.95 110.02 110.02 0 0 1 60.46 29.78l-7.77-6.84a110.034 110.034 0 0 1 37.19 56.18 69.94 69.94 0 0 0 23.66 35.75 69.945 69.945 0 0 0 40.07 15.25c22.98 1.2 45.01 9.59 62.98 23.96l-8.42-6.1a109.955 109.955 0 0 1 42.31 52.37 70.009 70.009 0 0 0 68.22 44.72 110.05 110.05 0 0 1 64.89 17.92l-9.27-5.45a109.95 109.95 0 0 1 47.2 47.96 70.09 70.09 0 0 0 30.04 30.53 70.023 70.023 0 0 0 42.19 7.31c22.76-3.19 45.95.83 66.31 11.49l-10.39-4.77c21.38 8.5 39.56 23.5 51.97 42.88a70.067 70.067 0 0 0 33.08 27.29 69.992 69.992 0 0 0 42.78 2.87 110.12 110.12 0 0 1 67.23 4.53l-11.8-3.94a110.055 110.055 0 0 1 56.55 36.83 70.053 70.053 0 0 0 36 23.44 70.078 70.078 0 0 0 42.9-2c21.59-8.07 45.17-9.17 67.42-3.13l-13.39-2.76a110.074 110.074 0 0 1 60.48 29.33 70.04 70.04 0 0 0 38.49 18.67c14.46 2.05 29.2-.47 42.16-7.22a110.106 110.106 0 0 1 66.25-11.33l-15-1.09c23.04.1 45.47 7.43 64.12 20.96a70.07 70.07 0 0 0 40.81 13.33c14.66.06 28.98-4.48 40.92-12.99a110.034 110.034 0 0 1 64.29-20.42l-16.28 1.15c22.69-3.3 45.86.58 66.24 11.09a70.012 70.012 0 0 0 42.16 7.05 69.977 69.977 0 0 0 38.4-18.76 109.899 109.899 0 0 1 60.34-29.49l-16.77 3.79a109.97 109.97 0 0 1 67.47.74 70.057 70.057 0 0 0 42.94.47c14-4.35 26.3-12.99 35.13-24.69 13.89-18.4 33.2-31.97 55.21-38.79l-16.09 6.42a109.946 109.946 0 0 1 66.58-9.9c14.43 2.38 29.25.17 42.37-6.3a70.02 70.02 0 0 0 30.76-29.8 110.005 110.005 0 0 1 48.35-46.83L6800 1000H4000v1320z"/>
    </clipPath>
    <clipPath id="g">
      <path d="M5020 2550c0-220.91 179.09-400 400-400s400 179.09 400 400-179.09 400-400 400-400-179.09-400-400"/>
    </clipPath>
    <clipPath id="h">
      <path d="M4621.49 2574.41c16.54 16 27.65 36.8 31.74 59.45a70.054 70.054 0 0 0 20.2 37.84 70.041 70.041 0 0 0 38.48 18.95 110.02 110.02 0 0 1 60.46 29.78l-7.77-6.84a110.034 110.034 0 0 1 37.19 56.18 69.94 69.94 0 0 0 23.66 35.75 69.945 69.945 0 0 0 40.07 15.25c22.98 1.2 45.01 9.59 62.98 23.96l-8.42-6.1a109.955 109.955 0 0 1 42.31 52.37 70.009 70.009 0 0 0 68.22 44.72 110.05 110.05 0 0 1 64.89 17.92l-9.27-5.45a109.95 109.95 0 0 1 47.2 47.96 70.09 70.09 0 0 0 30.04 30.53 70.023 70.023 0 0 0 42.19 7.31c22.76-3.19 45.95.83 66.31 11.49l-10.39-4.77c21.38 8.5 39.56 23.5 51.97 42.88a70.067 70.067 0 0 0 33.08 27.29 69.992 69.992 0 0 0 42.78 2.87 110.12 110.12 0 0 1 67.23 4.53l-11.8-3.94a110.055 110.055 0 0 1 56.55 36.83 70.053 70.053 0 0 0 36 23.44 70.078 70.078 0 0 0 42.9-2c21.59-8.07 45.17-9.17 67.42-3.13l-13.39-2.76a110.074 110.074 0 0 1 60.48 29.33 70.04 70.04 0 0 0 38.49 18.67c14.46 2.05 29.2-.47 42.16-7.22a110.106 110.106 0 0 1 66.25-11.33l-15-1.09c23.04.1 45.47 7.43 64.12 20.96a70.07 70.07 0 0 0 40.81 13.33c14.66.06 28.98-4.48 40.92-12.99a110.034 110.034 0 0 1 64.29-20.42l-16.28 1.15c22.69-3.3 45.86.58 66.24 11.09a70.012 70.012 0 0 0 42.16 7.05 69.977 69.977 0 0 0 38.4-18.76 109.899 109.899 0 0 1 60.34-29.49l-16.77 3.79a109.97 109.97 0 0 1 67.47.74 70.057 70.057 0 0 0 42.94.47c14-4.35 26.3-12.99 35.13-24.69 13.89-18.4 33.2-31.97 55.21-38.79l-16.09 6.42a109.946 109.946 0 0 1 66.58-9.9c14.43 2.38 29.25.17 42.37-6.3a70.02 70.02 0 0 0 30.76-29.8 110.005 110.005 0 0 1 48.35-46.83L6800 1000H4000v1320z"/>
    </clipPath>
  </defs>
  <path d="M18.667 406.667h46.666l-8 8H42.667v60h-8v-60h-24M73.333 406.667l8 4v26.666H112v-30.666l8 4v64h-8v-29.334H81.333v29.334h-8M130.667 406.667H176l-8 8h-29.333v22.666H172l-8 8h-25.333v21.334H176l-8 8h-37.333M216 406.667h41.333l-8 8h-34.666v52h34.666v-21.334h-22.666l8-8h22.666v29.334l-8 8H216l-9.333-9.334V416M268 406.667h42.667l8 8v20L312 440l6.667 5.333v29.334h-8v-29.334H276v-8h34.667v-22.666H276v60h-8M328 406.667h45.333l-8 8H336v22.666h33.333l-8 8H336v21.334h37.333l-8 8H328M377.333 406.667h45.334l-8 8h-29.334v22.666h33.334l-8 8h-25.334v21.334h37.334l-8 8h-37.334M432 410.667l9.333-4 33.334 52v-48l8-4v68H476l-33.333-52H440v52h-8M521.333 413.333l8-5.333 24 46.667h1.334l24-48L588 412v62.667h-8v-52l-21.333 42.666h-8l-21.334-44v53.334h-8M602.667 416l9.333-9.333h33.333l8 8v60h-8l8-60v60h-8v-25.334h-34.666v-8h34.666v-26.666h-34.666v60h-8M661.333 414.667l8-8h33.334l8 8h-41.334v52H712l-8 8h-34.667l-8-8M720 406.667l8 4v26.666h30.667v-30.666l8 4v64h-8v-29.334H728v29.334h-8M784 474.667h8v-68h-8zM808 410.667l9.333-4 33.334 52v-48l8-4v68H852l-33.333-52H816v52h-8M868 406.667h45.333l-8 8H876v22.666h33.333l-8 8H876v21.334h37.333l-8 8H868M373.333 224c0 6.627-5.373 12-12 12-6.626 0-12-5.373-12-12s5.374-12 12-12c6.627 0 12 5.373 12 12h-7.2a4.8 4.8 0 1 0-9.6 0 4.8 4.8 0 0 0 9.6 0" fill="#43b063"/>
  <path d="M364.333 224a3 3 0 1 1-5.998.001 3 3 0 0 1 5.998-.001M350.536 223.767a10.798 10.798 0 0 1 14.472-9.923l.408-1.128a12 12 0 0 1-7.913-11.544l-1.2-.027a10.802 10.802 0 0 1-14.472 9.923l-.41 1.128a11.998 11.998 0 0 1 7.915 11.544" fill="#43b063"/>
  <path d="M357.505 200.912c0 6.627-5.373 12-12 12-6.626 0-12-5.373-12-12s5.374-12 12-12c6.627 0 12 5.373 12 12h-7.2a4.8 4.8 0 1 0-9.6 0 4.8 4.8 0 0 0 9.6 0" fill="#43b063"/>
  <path d="M348.505 200.912a3 3 0 1 1-6 0 3 3 0 0 1 6 0M333.072 196.477a13.197 13.197 0 0 1 10.056-8.55l-3.36-3.954a13.208 13.208 0 0 1-10.057 8.551" fill="#43b063"/>
  <path d="M339.335 179.54c0 6.627-5.374 12-12 12-6.628 0-12-5.373-12-12s5.372-12 12-12c6.626 0 12 5.373 12 12h-7.2a4.8 4.8 0 1 0-9.601 0 4.8 4.8 0 0 0 9.6 0" fill="#43b063"/>
  <path d="M330.335 179.54a3 3 0 1 1-6 0 3 3 0 0 1 6 0M316.707 181.463a10.801 10.801 0 0 1 12.202-12.608l.175-1.187a11.998 11.998 0 0 1-10.059-9.735l-1.181.214a10.801 10.801 0 0 1-12.201 12.608l-.175 1.186a12 12 0 0 1 10.059 9.735" fill="#43b063"/>
  <path d="M319.217 160.07c0 6.627-5.373 12-12 12-6.626 0-12-5.373-12-12s5.374-12 12-12c6.627 0 12 5.373 12 12h-7.2a4.8 4.8 0 1 0-9.6.001 4.8 4.8 0 0 0 9.6 0" fill="#43b063"/>
  <path d="M310.217 160.07a3.001 3.001 0 1 1-6.002-.002 3.001 3.001 0 0 1 6.002.003M294.168 158.081a13.2 13.2 0 0 1 8.247-10.306l-4.002-3.202a13.197 13.197 0 0 1-8.247 10.307" fill="#43b063"/>
  <path d="M297.364 142.584c0 6.627-5.373 12-12 12s-12-5.373-12-12 5.373-12 12-12 12 5.373 12 12h-7.2a4.8 4.8 0 1 0-9.6 0 4.8 4.8 0 0 0 9.6 0" fill="#43b063"/>
  <path d="M288.364 142.584a3 3 0 1 1-6 0 3 3 0 0 1 6 0M275.29 146.473a10.802 10.802 0 0 1 9.625-14.68l-.051-1.198a12.001 12.001 0 0 1-11.695-7.668l-1.118.433a10.801 10.801 0 0 1-9.626 14.68l.05 1.199a11.994 11.994 0 0 1 11.695 7.668" fill="#43b063"/>
  <path d="M273.975 127.25c0 6.626-5.372 12-12 12-6.627 0-12-5.374-12-12 0-6.627 5.373-12 12-12 6.628 0 12 5.373 12 12h-7.2a4.8 4.8 0 1 0-9.601 0 4.8 4.8 0 0 0 9.6 0" fill="#43b063"/>
  <path d="M264.975 127.25a3 3 0 1 1-6 0 3 3 0 0 1 6 0M248.787 127.792a13.203 13.203 0 0 1 6.125-11.693l-4.513-2.364a13.209 13.209 0 0 1-6.126 11.693" fill="#43b063"/>
  <path d="M249.21 114.276c0 6.628-5.374 12-12 12-6.627 0-12-5.372-12-12 0-6.627 5.373-12 12-12 6.626 0 12 5.373 12 12h-7.2a4.801 4.801 0 0 0-9.6 0 4.8 4.8 0 0 0 9.6 0" fill="#43b063"/>
  <path d="M240.21 114.276a3 3 0 1 1-6 .001 3 3 0 0 1 6-.001M228.116 120.103a10.8 10.8 0 0 1 6.484-16.306l-.29-1.165a11.995 11.995 0 0 1-13.005-5.17l-1.01.646a10.8 10.8 0 0 1-6.484 16.307l.29 1.164a12.005 12.005 0 0 1 13.004 5.17" fill="#43b063"/>
  <path d="M223.201 103.933c0 6.628-5.373 12-12 12-6.626 0-12-5.372-12-12 0-6.626 5.374-12 12-12 6.627 0 12 5.374 12 12h-7.2a4.8 4.8 0 1 0-9.6.001 4.8 4.8 0 0 0 9.6 0" fill="#43b063"/>
  <path d="M214.201 103.933a3 3 0 1 1-5.998.002 3 3 0 0 1 5.998-.002M198.439 107.305a13.21 13.21 0 0 1 3.462-12.738l-4.986-1.355a13.193 13.193 0 0 1-3.461 12.737" fill="#43b063"/>
  <path d="M196.152 96.583c0 6.626-5.372 12-12 12-6.627 0-12-5.374-12-12 0-6.627 5.373-12 12-12 6.628 0 12 5.373 12 12h-7.2a4.8 4.8 0 1 0-9.6 0 4.8 4.8 0 0 0 9.6 0" fill="#43b063"/>
  <path d="M187.152 96.583a3 3 0 1 1-5.999 0 3 3 0 0 1 5.999 0M176.696 104.396a10.8 10.8 0 0 1 2.47-17.393l-.554-1.064a12.003 12.003 0 0 1-13.825-1.964l-.828.868a10.806 10.806 0 0 1 3.236 9.332 10.797 10.797 0 0 1-5.707 8.061l.555 1.064a12.007 12.007 0 0 1 13.825 1.964" fill="#43b063"/>
  <path d="M168.501 92.656c0 6.627-5.373 12-12 12-6.626 0-12-5.373-12-12s5.374-12 12-12c6.627 0 12 5.373 12 12h-7.2a4.8 4.8 0 1 0-9.6 0 4.8 4.8 0 0 0 9.6 0" fill="#43b063"/>
  <path d="M159.501 92.656a3 3 0 1 1-5.998.001 3 3 0 0 1 5.998-.001M145.043 99.208a13.21 13.21 0 0 1 .054-13.2l-5.156-.021a13.201 13.201 0 0 1-.056 13.2" fill="#43b063"/>
  <path d="M140.483 92.539c0 6.626-5.374 12-12 12-6.628 0-12-5.374-12-12 0-6.627 5.372-12 12-12 6.626 0 12 5.373 12 12h-7.2a4.8 4.8 0 1 0-9.602 0 4.8 4.8 0 0 0 9.601 0" fill="#43b063"/>
  <path d="M131.482 92.539a3 3 0 1 1-6-.001 3 3 0 0 1 6 0M123.532 102.137a10.8 10.8 0 0 1-2.528-17.39l-.83-.866a12.003 12.003 0 0 1-13.81 2.007l-.55 1.067a10.801 10.801 0 0 1 2.528 17.39l.83.866a12.002 12.002 0 0 1 13.81-2.007" fill="#43b063"/>
  <path d="M112.864 96.553c0 6.627-5.373 12-12 12-6.628 0-12-5.373-12-12 0-6.626 5.372-12 12-12 6.627 0 12 5.374 12 12h-7.2a4.8 4.8 0 1 0-9.602.001 4.8 4.8 0 0 0 9.602 0" fill="#43b063"/>
  <path d="M103.864 96.553a3 3 0 1 1-6.002-.001 3 3 0 0 1 6.002.001M91.901 106.244a13.199 13.199 0 0 1-3.91-12.608l-4.931 1.53a13.198 13.198 0 0 1 3.91 12.607" fill="#43b063"/>
  <path d="M86.097 104.857c0 6.627-5.373 12-12 12s-12-5.373-12-12c0-6.628 5.373-12 12-12s12 5.372 12 12h-7.2a4.8 4.8 0 1 0-9.601.001 4.8 4.8 0 0 0 9.6 0" fill="#43b063"/>
  <path d="M77.097 104.857a3 3 0 1 1-6.001-.001 3 3 0 0 1 6 .001M72.34 115.512a10.797 10.797 0 0 1-7.77-15.741l-1.06-.566a11.998 11.998 0 0 1-12.537 6.188l-.195 1.186a10.797 10.797 0 0 1 7.77 15.741l1.06.565a11.999 11.999 0 0 1 12.537-6.188" fill="#43b063"/>
  <path d="M61.021 117.233c0 6.628-5.373 12-12 12s-12-5.372-12-12c0-6.626 5.373-12 12-12s12 5.374 12 12h-7.2a4.8 4.8 0 1 0-9.6.001 4.8 4.8 0 0 0 9.6 0" fill="#43b063"/>
  <path d="M52.021 117.233a3 3 0 1 1-6 0 3 3 0 0 1 6 0" fill="#43b063"/>
  <g clip-path="url(#a)" fill="#43b063" transform="matrix(.13333 0 0 -.13333 0 533.333)">
    <path d="M2800 2320c0-49.7-40.3-90-90-90s-90 40.3-90 90 40.3 90 90 90 90-40.3 90-90h-54c0 19.88-16.12 36-36 36s-36-16.12-36-36 16.12-36 36-36 36 16.12 36 36"/>
    <path d="M2732.5 2320c0-12.43-10.07-22.5-22.5-22.5s-22.5 10.07-22.5 22.5 10.07 22.5 22.5 22.5 22.5-10.07 22.5-22.5M2697.85 2221.75a99.023 99.023 0 0 0-47.49 19.23 98.97 98.97 0 0 0-31.52 40.41l-23.79-31.51a99.014 99.014 0 0 0 47.5-19.24 98.965 98.965 0 0 0 31.51-40.41"/>
    <path d="M2672.9 2151.63c0-49.7-40.3-90-90-90s-90 40.3-90 90 40.3 90 90 90 90-40.3 90-90h-54c0 19.88-16.12 36-36 36s-36-16.12-36-36 16.12-36 36-36 36 16.12 36 36"/>
    <path d="M2605.4 2151.63c0-12.43-10.08-22.5-22.5-22.5-12.43 0-22.5 10.07-22.5 22.5 0 12.42 10.07 22.5 22.5 22.5 12.42 0 22.5-10.08 22.5-22.5M2600.16 2072.49a81.017 81.017 0 0 0-71.54 19.02 81.012 81.012 0 0 0-26.21 69.24l-8.94 1.02a89.934 89.934 0 0 0-22.63-50.18 90.02 90.02 0 0 0-47.61-27.62l1.92-8.79a81.016 81.016 0 0 0 71.55-19.02 81.022 81.022 0 0 0 26.2-69.24l8.94-1.02a90.07 90.07 0 0 0 22.63 50.18 90.02 90.02 0 0 0 47.61 27.62"/>
    <path d="M2532.41 1996.04c0-49.7-40.29-90-90-90-49.7 0-90 40.3-90 90 0 49.71 40.3 90 90 90 49.71 0 90-40.29 90-90h-54c0 19.88-16.12 36-36 36-19.87 0-36-16.12-36-36s16.13-36 36-36c19.88 0 36 16.12 36 36"/>
    <path d="M2464.91 1996.04c0-12.42-10.07-22.5-22.5-22.5-12.42 0-22.5 10.08-22.5 22.5 0 12.43 10.08 22.5 22.5 22.5 12.43 0 22.5-10.07 22.5-22.5M2411.79 1901.9a98.969 98.969 0 0 0-42.97 27.92 99.107 99.107 0 0 0-23.25 45.68l-28.07-25.26a99.015 99.015 0 0 0 42.96-27.93 98.883 98.883 0 0 0 23.25-45.67"/>
    <path d="M2376.87 1856.09c0-49.7-40.3-90-90-90-49.71 0-90 40.3-90 90 0 49.71 40.29 90 90 90 49.7 0 90-40.29 90-90h-54c0 19.88-16.12 36-36 36s-36-16.12-36-36 16.12-36 36-36 36 16.12 36 36"/>
    <path d="M2309.37 1856.09c0-12.42-10.08-22.5-22.5-22.5-12.43 0-22.5 10.08-22.5 22.5 0 12.43 10.07 22.5 22.5 22.5 12.42 0 22.5-10.07 22.5-22.5M2285.64 1775.1c-26.04.4-50.3 13.29-65.21 34.65-14.89 21.36-18.62 48.58-10 73.15l-8.49 2.98a90.044 90.044 0 0 0-33.43-44.02 90.086 90.086 0 0 0-52.86-16.18l-.14-9a80.985 80.985 0 0 0 65.2-34.64 80.987 80.987 0 0 0 10.01-73.16l8.49-2.98a90.025 90.025 0 0 0 33.43 44.03 90.108 90.108 0 0 0 52.86 16.18"/>
    <path d="M2204.29 1735.69c0-49.7-40.3-90-90-90-49.71 0-90 40.3-90 90s40.29 90 90 90c49.7 0 90-40.3 90-90h-54c0 19.88-16.13 36-36 36-19.88 0-36-16.12-36-36s16.12-36 36-36c19.87 0 36 16.12 36 36"/>
    <path d="M2136.79 1735.69c0-12.42-10.08-22.5-22.5-22.5-12.43 0-22.5 10.08-22.5 22.5 0 12.43 10.07 22.5 22.5 22.5 12.42 0 22.5-10.07 22.5-22.5M2059.68 1653.12a98.982 98.982 0 0 0-33.98 38.36 99.212 99.212 0 0 0-10.24 50.22l-34-16.97a99.064 99.064 0 0 0 33.97-38.37 99.065 99.065 0 0 0 10.24-50.22"/>
    <path d="M2016.85 1642.15c0-49.7-40.3-90-90-90-49.71 0-90 40.3-90 90 0 49.71 40.29 90 90 90 49.7 0 90-40.29 90-90h-54c0 19.88-16.12 36-36 36s-36-16.12-36-36 16.12-36 36-36 36 16.12 36 36"/>
    <path d="M1949.35 1642.15c0-12.42-10.08-22.5-22.5-22.5-12.43 0-22.5 10.08-22.5 22.5 0 12.43 10.07 22.5 22.5 22.5 12.42 0 22.5-10.07 22.5-22.5M1900.78 1565.46a81.018 81.018 0 0 0-51.48 53.29 81.013 81.013 0 0 0 13.4 72.86l-7.13 5.5a90.011 90.011 0 0 0-45.26-31.21 90.053 90.053 0 0 0-54.97.95l-2.9-8.52a81.003 81.003 0 0 0 51.48-53.28 81.028 81.028 0 0 0-13.4-72.87l7.13-5.5a90.011 90.011 0 0 0 45.26 31.21 90.052 90.052 0 0 0 54.97-.95"/>
    <path d="M1816.38 1581.64c0-49.7-40.3-90-90-90-49.71 0-90 40.3-90 90s40.29 90 90 90c49.7 0 90-40.3 90-90h-54c0 19.88-16.13 36-36 36-19.88 0-36-16.12-36-36s16.12-36 36-36c19.87 0 36 16.12 36 36"/>
    <path d="M1748.88 1581.64c0-12.43-10.08-22.5-22.5-22.5-12.43 0-22.5 10.07-22.5 22.5s10.07 22.5 22.5 22.5c12.42 0 22.5-10.07 22.5-22.5M1646.09 1523.71a99.103 99.103 0 0 0-18.21 47.9 99.11 99.11 0 0 0 8.19 50.59l-38.52-3.92a99.103 99.103 0 0 0 18.21-47.9 98.9 98.9 0 0 0-8.19-50.59"/>
    <path d="M1607.27 1560.36c0-49.71-40.3-90-90-90-49.71 0-90 40.29-90 90 0 49.7 40.29 90 90 90 49.7 0 90-40.3 90-90h-54c0 19.87-16.13 36-36 36-19.88 0-36-16.13-36-36 0-19.88 16.12-36 36-36 19.87 0 36 16.12 36 36"/>
    <path d="M1539.77 1560.36c0-12.43-10.08-22.5-22.5-22.5-12.43 0-22.5 10.07-22.5 22.5 0 12.42 10.07 22.5 22.5 22.5 12.42 0 22.5-10.08 22.5-22.5M1463.48 1499.8c-19.55 17.35-29.51 43.08-26.77 69.07a81.033 81.033 0 0 0 40.61 61.95l-4.43 7.83a90.044 90.044 0 0 0-53.84-11.2 89.972 89.972 0 0 0-50.31 22.21l-5.98-6.73a80.998 80.998 0 0 0 26.76-69.07 80.966 80.966 0 0 0-40.61-61.95l4.44-7.84a90.002 90.002 0 0 0 104.15-11"/>
    <path d="M1398.97 1582.38c0-49.71-40.29-90-90-90-49.7 0-90 40.29-90 90 0 49.7 40.3 90 90 90 49.71 0 90-40.3 90-90h-54c0 19.87-16.12 36-36 36s-36-16.13-36-36c0-19.88 16.12-36 36-36s36 16.12 36 36"/>
    <path d="M1331.47 1582.38c0-12.43-10.07-22.5-22.5-22.5-12.42 0-22.5 10.07-22.5 22.5 0 12.42 10.08 22.5 22.5 22.5 12.43 0 22.5-10.08 22.5-22.5M1212.07 1562.12a99.03 99.03 0 0 0 2.85 51.17c5.42 16.5 15.1 31.3 28.06 42.88l-36.1 11.86a99.136 99.136 0 0 0-2.85-51.17 99.093 99.093 0 0 0-28.06-42.88"/>
    <path d="M1199.98 1647.78c0-49.71-40.3-90-90-90-49.71 0-90 40.29-90 90 0 49.7 40.29 90 90 90 49.7 0 90-40.3 90-90h-54c0 19.88-16.12 36-36 36s-36-16.12-36-36 16.12-36 36-36 36 16.12 36 36"/>
    <path d="M1132.48 1647.78c0-12.43-10.08-22.5-22.5-22.5-12.43 0-22.5 10.07-22.5 22.5 0 12.42 10.07 22.5 22.5 22.5 12.42 0 22.5-10.08 22.5-22.5M1036.11 1614.54a81.016 81.016 0 0 0 3.87 74.01 81.021 81.021 0 0 0 62.47 39.88l-.84 8.96a90.014 90.014 0 0 0-53.67 11.84 90.066 90.066 0 0 0-36.77 40.84l-8.21-3.69a81 81 0 0 0-66.339-113.88l.836-8.96a90.017 90.017 0 0 0 90.443-52.69"/>
    <path d="M1019.09 1753.14c0-49.7-40.297-90-90-90s-90 40.3-90 90c0 49.71 40.297 90 90 90s90-40.29 90-90h-54c0 19.88-16.121 36-36 36s-36-16.12-36-36c0-19.87 16.121-36 36-36s36 16.13 36 36"/>
    <path d="M951.59 1753.14c0-12.42-10.074-22.5-22.5-22.5s-22.5 10.08-22.5 22.5c0 12.43 10.074 22.5 22.5 22.5s22.5-10.07 22.5-22.5M832.219 1773.56a99.022 99.022 0 0 0 23.183 45.7 99.052 99.052 0 0 0 42.93 27.99l-28.75 25.79a99.014 99.014 0 0 0-66.113-73.69"/>
    <path d="M862.711 1893.45c0-49.7-40.297-90-90-90s-90 40.3-90 90 40.297 90 90 90 90-40.3 90-90h-54c0 19.88-16.121 36-36 36s-36-16.12-36-36 16.121-36 36-36 36 16.12 36 36"/>
    <path d="M795.211 1893.45c0-12.43-10.074-22.5-22.5-22.5s-22.5 10.07-22.5 22.5 10.074 22.5 22.5 22.5 22.5-10.07 22.5-22.5M691.727 1891.77a81.001 81.001 0 0 0 105.406 78.91l2.711 8.58a89.965 89.965 0 0 0-44.91 31.88A89.96 89.96 0 0 0 737 2063.21l-9-.19c.539-26.11-11.535-50.88-32.437-66.52a81.007 81.007 0 0 0-72.965-12.39l-2.715-8.58a89.974 89.974 0 0 0 44.91-31.88 89.96 89.96 0 0 0 17.934-52.07"/>
    <path d="M737.02 2061.34c0-49.7-40.297-90-90-90-49.704 0-90 40.3-90 90s40.296 90 90 90c49.703 0 90-40.3 90-90h-54c0 19.88-16.122 36-36 36-19.879 0-36-16.12-36-36s16.121-36 36-36c19.878 0 36 16.12 36 36"/>
    <path d="M669.52 2061.34c0-12.43-10.075-22.5-22.5-22.5-12.426 0-22.5 10.07-22.5 22.5s10.074 22.5 22.5 22.5c12.425 0 22.5-10.07 22.5-22.5M565.047 2116.85a98.989 98.989 0 0 0 38.738 33.55 99.047 99.047 0 0 0 50.324 9.69l-16.671 34.34a98.998 98.998 0 0 0-38.739-33.55 98.935 98.935 0 0 0-50.324-9.68"/>
    <path d="M645.465 2249.94c0-49.7-40.297-90-90-90s-90 40.3-90 90 40.297 90 90 90 90-40.3 90-90h-54c0 19.88-16.121 36-36 36s-36-16.12-36-36 16.121-36 36-36 36 16.12 36 36"/>
    <path d="M577.965 2249.94c0-12.42-10.074-22.5-22.5-22.5s-22.5 10.08-22.5 22.5c0 12.43 10.074 22.5 22.5 22.5s22.5-10.07 22.5-22.5M479.539 2278.16a81.008 81.008 0 0 0 54.606 49.93 81.025 81.025 0 0 0 72.39-15.28l5.676 6.99a89.987 89.987 0 0 0-27.617 101.21l-8.438 3.14a80.958 80.958 0 0 0-54.601-49.92 80.992 80.992 0 0 0-72.391 15.27l-5.676-6.99a89.987 89.987 0 0 0 30.082-46.16 90.034 90.034 0 0 0-2.468-55.05"/>
    <path d="M590.234 2452.37c0-49.7-40.296-90-90-90-49.703 0-90 40.3-90 90s40.297 90 90 90c49.704 0 90-40.3 90-90h-54c0 19.88-16.121 36-36 36s-36-16.12-36-36 16.121-36 36-36 36 16.12 36 36"/>
    <path d="M522.734 2452.37c0-12.42-10.074-22.5-22.5-22.5-12.425 0-22.5 10.08-22.5 22.5 0 12.43 10.075 22.5 22.5 22.5 12.426 0 22.5-10.07 22.5-22.5M443.504 2533.5a98.946 98.946 0 0 0 48.168 17.5 99.082 99.082 0 0 0 50.461-8.93l-3.305 38.06a99.033 99.033 0 0 0-48.168-17.49 99.082 99.082 0 0 0-50.461 8.93"/>
    <path d="M572.102 2661.27c0-49.71-40.301-90-90.004-90s-90 40.29-90 90c0 49.7 40.297 90 90 90s90.004-40.3 90.004-90h-54c0 19.87-16.125 36-36.004 36-19.879 0-36-16.13-36-36 0-19.88 16.121-36 36-36s36.004 16.12 36.004 36"/>
    <path d="M504.598 2661.27c0-12.43-10.075-22.5-22.5-22.5-12.426 0-22.5 10.07-22.5 22.5 0 12.42 10.074 22.5 22.5 22.5 12.425 0 22.5-10.08 22.5-22.5M420.535 2713.9a80.99 80.99 0 0 0 68.453 28.07 80.995 80.995 0 0 0 62.707-39.26l7.731 4.61a89.998 89.998 0 0 0-12.348 53.7 89.96 89.96 0 0 0 21.27 50.83l-6.84 5.85a81 81 0 0 0-131.16 11.19l-7.735-4.6a90.015 90.015 0 0 0-8.918-104.54"/>
    <path d="M589.941 2870.34c0-49.7-40.296-90-90-90-49.703 0-90 40.3-90 90s40.297 90 90 90c49.704 0 90-40.3 90-90h-54c0 19.88-16.121 36-36 36-19.878 0-36-16.12-36-36s16.122-36 36-36c19.879 0 36 16.12 36 36"/>
    <path d="M522.441 2870.34c0-12.43-10.074-22.5-22.5-22.5-12.425 0-22.5 10.07-22.5 22.5s10.075 22.5 22.5 22.5c12.426 0 22.5-10.07 22.5-22.5M472.773 2965.54a99.151 99.151 0 0 0 51.239.83 99.115 99.115 0 0 0 44.789-24.9l9.168 36.57a99.045 99.045 0 0 0-51.239-.83 99.022 99.022 0 0 0-44.789 24.9"/>
    <path d="M640.801 3073.24c0-49.7-40.297-90-90-90s-90 40.3-90 90c0 49.71 40.297 90 90 90s90-40.29 90-90h-54c0 19.88-16.121 36-36 36s-36-16.12-36-36 16.121-36 36-36 36 16.12 36 36"/>
    <path d="M573.301 3073.24c0-12.42-10.074-22.5-22.5-22.5s-22.5 10.08-22.5 22.5c0 12.43 10.074 22.5 22.5 22.5s22.5-10.07 22.5-22.5M2001.32 2196.47a550.272 550.272 0 0 0-105.85-97.01l86.03-122.87a700.675 700.675 0 0 0-162.09-84.38l-51.3 140.96a549.931 549.931 0 0 0-140.17-31.08l13.07-149.43a700.466 700.466 0 0 0-182.56 7.97l26.04 147.73a549.87 549.87 0 0 0-136.93 43.17l-63.39-135.94a699.952 699.952 0 0 0-154.12 98.18l96.42 114.91a550.272 550.272 0 0 0-97.01 105.85l-122.87-86.03a700.272 700.272 0 0 0-84.375 162.09l140.955 51.3a549.911 549.911 0 0 0-31.08 140.18l-149.426-13.08a700.078 700.078 0 0 0 7.969 182.56l147.727-26.04a549.87 549.87 0 0 0 43.17 136.93l-135.944 63.39a700.041 700.041 0 0 0 98.184 154.12l114.91-96.41a550.542 550.542 0 0 0 105.85 97l-86.03 122.87a700.675 700.675 0 0 0 162.09 84.38l51.3-140.96a549.931 549.931 0 0 0 140.17 31.08l-13.07 149.43a700.466 700.466 0 0 0 182.56-7.97l-26.04-147.73a549.87 549.87 0 0 0 136.93-43.17l63.39 135.94a699.952 699.952 0 0 0 154.12-98.18l-96.41-114.91a550.542 550.542 0 0 0 97-105.85l122.87 86.03a700.675 700.675 0 0 0 84.38-162.09l-140.96-51.3a549.931 549.931 0 0 0 31.08-140.17l149.43 13.07a700.466 700.466 0 0 0-7.97-182.56l-147.73 26.04a549.87 549.87 0 0 0-43.17-136.93l135.94-63.39a699.952 699.952 0 0 0-98.18-154.12"/>
  </g>
  <g clip-path="url(#b)" transform="matrix(.13333 0 0 -.13333 0 533.333)">
    <g clip-path="url(#c)" fill="none" stroke-width="5" stroke-miterlimit="10">
      <path d="M1036.09 2692.08l692.82 400" stroke="#44b064"/>
      <path d="M1038.59 2687.75l692.82 400" stroke="#45b165"/>
      <path d="M1041.09 2683.42l692.82 400" stroke="#47b166"/>
      <path d="M1043.59 2679.09l692.82 400" stroke="#48b267"/>
      <path d="M1046.09 2674.76l692.82 400" stroke="#49b268"/>
      <path d="M1048.59 2670.43l692.82 400" stroke="#4ab369"/>
      <path d="M1051.09 2666.1l692.82 400" stroke="#4bb36a"/>
      <path d="M1053.59 2661.77l692.82 400" stroke="#4cb46b"/>
      <path d="M1056.09 2657.44l692.82 400" stroke="#4eb46c"/>
      <path d="M1058.59 2653.11l692.82 400" stroke="#4fb56d"/>
      <path d="M1061.09 2648.78l692.82 400" stroke="#50b56e"/>
      <path d="M1063.59 2644.45l692.82 400" stroke="#51b66f"/>
      <path d="M1066.09 2640.12l692.82 400" stroke="#52b670"/>
      <path d="M1068.59 2635.79l692.82 400" stroke="#53b771"/>
      <path d="M1071.09 2631.46l692.82 400" stroke="#55b772"/>
      <path d="M1073.59 2627.13l692.82 400" stroke="#56b873"/>
      <path d="M1076.09 2622.8l692.82 400" stroke="#57b874"/>
      <path d="M1078.59 2618.47l692.82 400" stroke="#58b975"/>
      <path d="M1081.09 2614.14l692.82 400" stroke="#59b976"/>
      <path d="M1083.59 2609.81l692.82 400" stroke="#5bba76"/>
      <path d="M1086.09 2605.48l692.82 400" stroke="#5cba77"/>
      <path d="M1088.59 2601.15l692.82 400" stroke="#5dbb78"/>
      <path d="M1091.09 2596.82l692.82 400" stroke="#5ebb79"/>
      <path d="M1093.59 2592.49l692.82 400" stroke="#5fbc7a"/>
      <path d="M1096.09 2588.16l692.82 400" stroke="#60bc7b"/>
      <path d="M1098.59 2583.83l692.82 400" stroke="#62bd7c"/>
      <path d="M1101.09 2579.5l692.82 400" stroke="#63bd7d"/>
      <path d="M1103.59 2575.17l692.82 400" stroke="#64be7e"/>
      <path d="M1106.09 2570.84l692.82 400" stroke="#65be80"/>
      <path d="M1108.59 2566.51l692.82 400" stroke="#66bf80"/>
      <path d="M1111.09 2562.18l692.82 400" stroke="#67bf81"/>
      <path d="M1113.59 2557.85l692.82 400" stroke="#69c082"/>
      <path d="M1116.09 2553.52l692.82 400" stroke="#6ac083"/>
      <path d="M1118.59 2549.19l692.82 400" stroke="#6bc184"/>
      <path d="M1121.09 2544.86l692.82 400" stroke="#6cc185"/>
      <path d="M1123.59 2540.53l692.82 400" stroke="#6dc286"/>
      <path d="M1126.09 2536.2l692.82 400" stroke="#6fc287"/>
      <path d="M1128.59 2531.87l692.82 400" stroke="#70c388"/>
      <path d="M1131.09 2527.54l692.82 400" stroke="#71c389"/>
      <path d="M1133.59 2523.21l692.82 400" stroke="#72c48a"/>
      <path d="M1136.09 2518.88l692.82 400" stroke="#73c48b"/>
      <path d="M1138.59 2514.55l692.82 400" stroke="#74c58c"/>
      <path d="M1141.09 2510.21l692.82 400" stroke="#76c58d"/>
      <path d="M1143.59 2505.88l692.82 400" stroke="#77c68e"/>
      <path d="M1146.09 2501.55l692.82 400" stroke="#78c68f"/>
      <path d="M1148.59 2497.22l692.82 400" stroke="#79c790"/>
      <path d="M1151.09 2492.89l692.82 400" stroke="#7ac791"/>
      <path d="M1153.59 2488.56l692.82 400" stroke="#7bc892"/>
      <path d="M1156.09 2484.23l692.82 400" stroke="#7dc893"/>
      <path d="M1158.59 2479.9l692.82 400" stroke="#7ec994"/>
      <path d="M1161.09 2475.57l692.82 400" stroke="#7fc995"/>
      <path d="M1163.59 2471.24l692.82 400" stroke="#80ca96"/>
      <path d="M1166.09 2466.91l692.82 400" stroke="#81ca97"/>
      <path d="M1168.59 2462.58l692.82 400" stroke="#82cb97"/>
      <path d="M1171.09 2458.25l692.82 400" stroke="#83cb98"/>
      <path d="M1173.59 2453.92l692.82 400" stroke="#85cc99"/>
      <path d="M1176.09 2449.59l692.82 400" stroke="#86cc9a"/>
      <path d="M1178.59 2445.26l692.82 400" stroke="#87cd9b"/>
      <path d="M1181.09 2440.93l692.82 400" stroke="#88cd9c"/>
      <path d="M1183.59 2436.6l692.82 400" stroke="#89ce9d"/>
      <path d="M1186.09 2432.27l692.82 400" stroke="#8ace9e"/>
      <path d="M1188.59 2427.94l692.82 400" stroke="#8ccf9f"/>
      <path d="M1191.09 2423.61l692.82 400" stroke="#8dcfa0"/>
      <path d="M1193.59 2419.28l692.82 400" stroke="#8ed0a1"/>
      <path d="M1196.09 2414.95l692.82 400" stroke="#8fd0a2"/>
      <path d="M1198.59 2410.62l692.82 400" stroke="#90d1a3"/>
      <path d="M1201.09 2406.29l692.82 400" stroke="#92d1a4"/>
      <path d="M1203.59 2401.96l692.82 400" stroke="#93d2a5"/>
      <path d="M1206.09 2397.63l692.82 400" stroke="#94d2a6"/>
      <path d="M1208.59 2393.3l692.82 400" stroke="#95d3a7"/>
      <path d="M1211.09 2388.97l692.82 400" stroke="#96d3a8"/>
      <path d="M1213.59 2384.64l692.82 400" stroke="#97d4a9"/>
      <path d="M1216.09 2380.31l692.82 400" stroke="#99d4aa"/>
      <path d="M1218.59 2375.98l692.82 400" stroke="#9ad5ab"/>
      <path d="M1221.09 2371.65l692.82 400" stroke="#9bd5ac"/>
      <path d="M1223.59 2367.32l692.82 400" stroke="#9cd6ad"/>
      <path d="M1226.09 2362.99l692.82 400" stroke="#9dd6ae"/>
      <path d="M1228.59 2358.66l692.82 400" stroke="#9fd7af"/>
      <path d="M1231.09 2354.33l692.82 400" stroke="#a0d7b0"/>
      <path d="M1233.59 2350l692.82 400" stroke="#a1d8b1"/>
      <path d="M1236.09 2345.67l692.82 400" stroke="#a2d8b2"/>
      <path d="M1238.59 2341.34l692.82 400" stroke="#a3d9b3"/>
      <path d="M1241.09 2337.01l692.82 400" stroke="#a4d9b4"/>
      <path d="M1243.59 2332.68l692.82 400" stroke="#a6dab5"/>
      <path d="M1246.09 2328.35l692.82 400" stroke="#a7dab6"/>
      <path d="M1248.59 2324.02l692.82 400" stroke="#a8dbb7"/>
      <path d="M1251.09 2319.69l692.82 400" stroke="#a9dbb8"/>
      <path d="M1253.59 2315.36l692.82 400" stroke="#aadcb9"/>
      <path d="M1256.09 2311.03l692.82 400" stroke="#abdcba"/>
      <path d="M1258.59 2306.7l692.82 400" stroke="#adddbb"/>
      <path d="M1261.09 2302.37l692.82 400" stroke="#aeddbc"/>
      <path d="M1263.59 2298.04l692.82 400" stroke="#afdebd"/>
      <path d="M1266.09 2293.71l692.82 400" stroke="#b0debe"/>
      <path d="M1268.59 2289.38l692.82 400" stroke="#b1dfbf"/>
      <path d="M1271.09 2285.05l692.82 400" stroke="#b3dfc0"/>
      <path d="M1273.59 2280.72l692.82 400" stroke="#b4e0c1"/>
      <path d="M1276.09 2276.39l692.82 400" stroke="#b5e0c2"/>
      <path d="M1278.59 2272.06l692.82 400" stroke="#b6e1c3"/>
      <path d="M1281.09 2267.73l692.82 400" stroke="#b7e1c4"/>
      <path d="M1283.59 2263.4l692.82 400" stroke="#b8e2c5"/>
      <path d="M1286.09 2259.07l692.82 400" stroke="#bae2c5"/>
      <path d="M1288.59 2254.74l692.82 400" stroke="#bbe3c6"/>
      <path d="M1291.09 2250.41l692.82 400" stroke="#bce3c7"/>
      <path d="M1293.59 2246.08l692.82 400" stroke="#bde3c8"/>
      <path d="M1296.09 2241.75l692.82 400" stroke="#bee4c9"/>
      <path d="M1298.59 2237.42l692.82 400" stroke="#c0e4ca"/>
      <path d="M1301.09 2233.09l692.82 400" stroke="#c1e5cb"/>
      <path d="M1303.59 2228.76l692.82 400" stroke="#c2e5cc"/>
      <path d="M1306.09 2224.43l692.82 400" stroke="#c3e6cd"/>
      <path d="M1308.59 2220.1l692.82 400" stroke="#c4e6ce"/>
      <path d="M1311.09 2215.77l692.82 400" stroke="#c5e7cf"/>
      <path d="M1313.59 2211.44l692.82 400" stroke="#c7e7d0"/>
      <path d="M1316.09 2207.11l692.82 400" stroke="#c8e8d1"/>
      <path d="M1318.59 2202.78l692.82 400" stroke="#c9e8d2"/>
      <path d="M1321.09 2198.45l692.82 400" stroke="#cae9d3"/>
      <path d="M1323.59 2194.12l692.82 400" stroke="#cbe9d4"/>
      <path d="M1326.09 2189.79l692.82 400" stroke="#cdead5"/>
      <path d="M1328.59 2185.46l692.82 400" stroke="#ceead6"/>
      <path d="M1331.09 2181.13l692.82 400" stroke="#cfebd7"/>
      <path d="M1333.59 2176.8l692.82 400" stroke="#d0ebd8"/>
      <path d="M1336.09 2172.46l692.82 400" stroke="#d1ecd9"/>
      <path d="M1338.59 2168.14l692.82 400" stroke="#d2ecda"/>
      <path d="M1341.09 2163.8l692.82 400" stroke="#d4eddb"/>
      <path d="M1343.59 2159.47l692.82 400" stroke="#d5eddc"/>
      <path d="M1346.09 2155.14l692.82 400" stroke="#d6eedd"/>
      <path d="M1348.59 2150.81l692.82 400" stroke="#d7eede"/>
      <path d="M1351.09 2146.48l692.82 400" stroke="#d8efdf"/>
      <path d="M1353.59 2142.15l692.82 400" stroke="#daefe0"/>
      <path d="M1356.09 2137.82l692.82 400" stroke="#dbf0e1"/>
      <path d="M1358.59 2133.49l692.82 400" stroke="#dcf0e2"/>
      <path d="M1361.09 2129.16l692.82 400" stroke="#ddf1e3"/>
      <path d="M1363.59 2124.83l692.82 400" stroke="#def1e4"/>
      <path d="M1366.09 2120.5l692.82 400" stroke="#dff2e5"/>
      <path d="M1368.59 2116.17l692.82 400" stroke="#e1f2e6"/>
      <path d="M1371.09 2111.84l692.82 400" stroke="#e2f3e7"/>
      <path d="M1373.59 2107.51l692.82 400" stroke="#e3f3e8"/>
      <path d="M1376.09 2103.18l692.82 400" stroke="#e4f4e9"/>
      <path d="M1378.59 2098.85l692.82 400" stroke="#e5f4ea"/>
      <path d="M1381.09 2094.52l692.82 400" stroke="#e6f5eb"/>
      <path d="M1383.59 2090.19l692.82 400" stroke="#e8f5ec"/>
      <path d="M1386.09 2085.86l692.82 400" stroke="#e9f6ed"/>
      <path d="M1388.59 2081.53l692.82 400" stroke="#eaf6ee"/>
      <path d="M1391.09 2077.2l692.82 400" stroke="#ebf7ef"/>
      <path d="M1393.59 2072.87l692.82 400" stroke="#ecf7f0"/>
      <path d="M1396.09 2068.54l692.82 400" stroke="#eef8f1"/>
      <path d="M1398.59 2064.21l692.82 400" stroke="#eff8f2"/>
      <path d="M1401.09 2059.88l692.82 400" stroke="#f0f9f3"/>
      <path d="M1403.59 2055.55l692.82 400" stroke="#f1f9f4"/>
      <path d="M1406.09 2051.22l692.82 400" stroke="#f2faf4"/>
      <path d="M1408.59 2046.89l692.82 400" stroke="#f3faf5"/>
      <path d="M1411.09 2042.56l692.82 400" stroke="#f5fbf6"/>
      <path d="M1413.59 2038.23l692.82 400" stroke="#f6fbf7"/>
      <path d="M1416.09 2033.9l692.82 400" stroke="#f7fcf8"/>
      <path d="M1418.59 2029.57l692.82 400" stroke="#f8fcf9"/>
      <path d="M1421.09 2025.24l692.82 400" stroke="#f9fdfa"/>
      <path d="M1423.59 2020.91l692.82 400" stroke="#fbfdfb"/>
      <path d="M1426.09 2016.58l692.82 400" stroke="#fcfefc"/>
      <path d="M1428.59 2012.25l692.82 400" stroke="#fdfefd"/>
      <path d="M1431.09 2007.92l692.82 400" stroke="#fefffe"/>
      <path d="M1433.59 2003.59l692.82 400" stroke="#fff"/>
    </g>
  </g>
  <g clip-path="url(#d)" transform="matrix(.13333 0 0 -.13333 0 533.333)">
    <path d="M1680 2550c0-55.23-44.77-100-100-100s-100 44.77-100 100 44.77 100 100 100 100-44.77 100-100" fill="#43b063"/>
  </g>
  <path d="M560 224c0 6.627 5.373 12 12 12s12-5.373 12-12-5.373-12-12-12-12 5.373-12 12h7.2a4.8 4.8 0 1 1 9.6 0 4.8 4.8 0 0 1-9.6 0" fill="#43b063"/>
  <path d="M569 224a3 3 0 1 0 5.999.001A3 3 0 0 0 569 224M582.797 223.767a10.798 10.798 0 0 0-14.472-9.923l-.408-1.128a12 12 0 0 0 7.914-11.544l1.2-.027a10.802 10.802 0 0 0 14.472 9.923l.409 1.128a11.998 11.998 0 0 0-7.915 11.544" fill="#43b063"/>
  <path d="M575.828 200.912c0 6.627 5.373 12 12 12s12-5.373 12-12-5.373-12-12-12-12 5.373-12 12h7.2a4.8 4.8 0 1 1 9.6 0 4.8 4.8 0 0 1-9.6 0" fill="#43b063"/>
  <path d="M584.828 200.912a3 3 0 1 0 6 0 3 3 0 0 0-6 0M600.261 196.477a13.197 13.197 0 0 0-10.056-8.55l3.36-3.954a13.208 13.208 0 0 0 10.058 8.551" fill="#43b063"/>
  <path d="M593.999 179.54c0 6.627 5.373 12 12 12 6.628 0 12-5.373 12-12s-5.372-12-12-12c-6.627 0-12 5.373-12 12h7.2a4.8 4.8 0 1 1 9.6 0 4.8 4.8 0 0 1-9.6 0" fill="#43b063"/>
  <path d="M602.999 179.54a3 3 0 1 0 6 0 3 3 0 0 0-6 0M616.627 181.463a10.801 10.801 0 0 0-12.203-12.608l-.175-1.187a11.998 11.998 0 0 0 10.059-9.735l1.181.214a10.801 10.801 0 0 0 12.202 12.608l.174 1.186a12 12 0 0 0-10.059 9.735" fill="#43b063"/>
  <path d="M614.116 160.07c0 6.627 5.373 12 12 12s12-5.373 12-12-5.373-12-12-12-12 5.373-12 12h7.2a4.8 4.8 0 1 1 9.6.001 4.8 4.8 0 0 1-9.6 0" fill="#43b063"/>
  <path d="M623.116 160.07a3.001 3.001 0 1 0 6.002-.002 3.001 3.001 0 0 0-6.002.003M639.165 158.081a13.205 13.205 0 0 0-8.247-10.307l4.002-3.2a13.197 13.197 0 0 0 8.247 10.307" fill="#43b063"/>
  <path d="M635.97 142.584c0 6.627 5.373 12 12 12 6.626 0 12-5.373 12-12s-5.374-12-12-12c-6.627 0-12 5.373-12 12h7.2a4.8 4.8 0 1 1 9.6 0 4.8 4.8 0 0 1-9.6 0" fill="#43b063"/>
  <path d="M644.97 142.584a3 3 0 1 0 6 0 3 3 0 0 0-6 0M658.044 146.473a10.802 10.802 0 0 0-9.625-14.68l.05-1.198a12.001 12.001 0 0 0 11.695-7.668l1.12.433a10.797 10.797 0 0 0 9.624 14.68l-.05 1.199a12.008 12.008 0 0 0-7.08 1.954 11.994 11.994 0 0 0-4.614 5.714" fill="#43b063"/>
  <path d="M659.359 127.25c0 6.626 5.372 12 12 12 6.626 0 12-5.374 12-12 0-6.627-5.374-12-12-12-6.628 0-12 5.373-12 12h7.2a4.8 4.8 0 1 1 9.6 0 4.8 4.8 0 0 1-9.6 0" fill="#43b063"/>
  <path d="M668.359 127.25a3 3 0 1 0 5.998 0 3 3 0 0 0-5.998 0M684.547 127.792a13.203 13.203 0 0 0-6.126-11.693l4.514-2.364a13.209 13.209 0 0 0 6.125 11.693" fill="#43b063"/>
  <path d="M684.124 114.276c0 6.628 5.373 12 12 12s12-5.372 12-12c0-6.627-5.373-12-12-12s-12 5.373-12 12h7.2a4.801 4.801 0 0 1 9.6 0 4.8 4.8 0 0 1-9.6 0" fill="#43b063"/>
  <path d="M693.124 114.276a3 3 0 1 0 5.999.001 3 3 0 0 0-5.999-.001M705.217 120.103a10.8 10.8 0 0 0-6.484-16.306l.291-1.165a11.995 11.995 0 0 0 13.004-5.17l1.01.646a10.8 10.8 0 0 0 6.485 16.307l-.291 1.164a12.005 12.005 0 0 0-13.004 5.17" fill="#43b063"/>
  <path d="M710.132 103.933c0 6.628 5.373 12 12 12s12-5.372 12-12c0-6.626-5.373-12-12-12s-12 5.374-12 12h7.2a4.8 4.8 0 1 1 9.6.001 4.8 4.8 0 0 1-9.6 0" fill="#43b063"/>
  <path d="M719.132 103.933a3 3 0 1 0 5.999.002 3 3 0 0 0-5.999-.002M734.895 107.305a13.21 13.21 0 0 0-3.463-12.738l4.987-1.355a13.205 13.205 0 0 0 3.461 12.737" fill="#43b063"/>
  <path d="M737.181 96.583c0 6.626 5.372 12 12 12 6.627 0 12-5.374 12-12 0-6.627-5.373-12-12-12-6.628 0-12 5.373-12 12h7.2a4.8 4.8 0 1 1 9.601 0 4.8 4.8 0 0 1-9.6 0" fill="#43b063"/>
  <path d="M746.181 96.583a3 3 0 1 0 6 0 3 3 0 0 0-6 0M756.637 104.396a10.8 10.8 0 0 0-2.47-17.393l.554-1.064a12.003 12.003 0 0 0 13.826-1.964l.828.868a10.806 10.806 0 0 0-3.236 9.332 10.797 10.797 0 0 0 5.706 8.061l-.554 1.064a12.007 12.007 0 0 0-13.826 1.964" fill="#43b063"/>
  <path d="M764.832 92.656c0 6.627 5.373 12 12 12s12-5.373 12-12-5.373-12-12-12-12 5.373-12 12h7.2a4.8 4.8 0 1 1 9.6 0 4.8 4.8 0 0 1-9.6 0" fill="#43b063"/>
  <path d="M773.832 92.656a3 3 0 1 0 5.999.001 3 3 0 0 0-5.999-.001M788.29 99.208a13.21 13.21 0 0 0-.054-13.2l5.156-.021a13.201 13.201 0 0 0 .056 13.2" fill="#43b063"/>
  <path d="M792.85 92.539c0 6.626 5.374 12 12 12 6.629 0 12-5.374 12-12 0-6.627-5.371-12-12-12-6.626 0-12 5.373-12 12h7.2a4.8 4.8 0 1 1 9.601 0 4.8 4.8 0 0 1-9.6 0" fill="#43b063"/>
  <path d="M801.85 92.539a3.001 3.001 0 1 0 6.003-.003 3.001 3.001 0 0 0-6.002.003M809.801 102.137a10.801 10.801 0 0 0 2.528-17.39l.831-.866a12.002 12.002 0 0 0 13.81 2.007l.549 1.067a10.8 10.8 0 0 0-2.527 17.39l-.832.866a12 12 0 0 0-13.81-2.007" fill="#43b063"/>
  <path d="M820.47 96.553c0 6.627 5.373 12 12 12s12-5.373 12-12c0-6.626-5.373-12-12-12s-12 5.374-12 12h7.2a4.8 4.8 0 1 1 9.6.001 4.8 4.8 0 0 1-9.6 0" fill="#43b063"/>
  <path d="M829.47 96.553a3.001 3.001 0 1 0 6.002-.002 3.001 3.001 0 0 0-6.003.002M841.432 106.244a13.2 13.2 0 0 0 3.91-12.608l4.931 1.53a13.205 13.205 0 0 0-3.91 12.607" fill="#43b063"/>
  <path d="M847.236 104.857c0 6.627 5.373 12 12 12 6.628 0 12-5.373 12-12 0-6.628-5.372-12-12-12-6.627 0-12 5.372-12 12h7.2a4.8 4.8 0 1 1 9.6.001 4.8 4.8 0 0 1-9.6 0" fill="#43b063"/>
  <path d="M856.236 104.857a3.001 3.001 0 1 0 6.002-.002 3.001 3.001 0 0 0-6.002.002M860.993 115.512a10.8 10.8 0 0 0 7.771-15.741l1.059-.566a11.99 11.99 0 0 0 12.537 6.188l.195 1.186a10.798 10.798 0 0 0-7.77 15.741l-1.058.565a12.005 12.005 0 0 0-5.275-5.109 12.006 12.006 0 0 0-7.264-1.079" fill="#43b063"/>
  <path d="M872.312 117.233c0 6.628 5.373 12 12 12s12-5.372 12-12c0-6.626-5.373-12-12-12s-12 5.374-12 12h7.2a4.8 4.8 0 1 1 9.6.001 4.8 4.8 0 0 1-9.6 0" fill="#43b063"/>
  <path d="M881.312 117.233a3 3 0 1 0 5.999.002 3 3 0 0 0-5.999-.002" fill="#43b063"/>
  <g clip-path="url(#e)" fill="#43b063" transform="matrix(.13333 0 0 -.13333 0 533.333)">
    <path d="M4200 2320c0-49.7 40.3-90 90-90s90 40.3 90 90-40.3 90-90 90-90-40.3-90-90h54c0 19.88 16.12 36 36 36s36-16.12 36-36-16.12-36-36-36-36 16.12-36 36"/>
    <path d="M4267.5 2320c0-12.43 10.07-22.5 22.5-22.5s22.5 10.07 22.5 22.5-10.07 22.5-22.5 22.5-22.5-10.07-22.5-22.5M4302.15 2221.75a99.099 99.099 0 0 1 47.5 19.23 98.947 98.947 0 0 1 31.51 40.41l23.79-31.51a99.014 99.014 0 0 1-47.5-19.24 98.965 98.965 0 0 1-31.51-40.41"/>
    <path d="M4327.1 2151.63c0-49.7 40.3-90 90-90s90 40.3 90 90-40.3 90-90 90-90-40.3-90-90h54c0 19.88 16.12 36 36 36s36-16.12 36-36-16.12-36-36-36-36 16.12-36 36"/>
    <path d="M4394.6 2151.63c0-12.43 10.08-22.5 22.5-22.5 12.43 0 22.5 10.07 22.5 22.5 0 12.42-10.07 22.5-22.5 22.5-12.42 0-22.5-10.08-22.5-22.5M4399.84 2072.49a81.017 81.017 0 0 1 71.54 19.02 81.012 81.012 0 0 1 26.21 69.24l8.94 1.02a89.934 89.934 0 0 1 22.63-50.18 90.02 90.02 0 0 1 47.61-27.62l-1.92-8.79a81.016 81.016 0 0 1-71.55-19.02 81.022 81.022 0 0 1-26.2-69.24l-8.94-1.02a90.002 90.002 0 0 1-22.63 50.18 90.057 90.057 0 0 1-47.61 27.62"/>
    <path d="M4467.59 1996.04c0-49.7 40.29-90 90-90 49.7 0 90 40.3 90 90 0 49.71-40.3 90-90 90-49.71 0-90-40.29-90-90h54c0 19.88 16.12 36 36 36 19.87 0 36-16.12 36-36s-16.13-36-36-36c-19.88 0-36 16.12-36 36"/>
    <path d="M4535.09 1996.04c0-12.42 10.07-22.5 22.5-22.5 12.42 0 22.5 10.08 22.5 22.5 0 12.43-10.08 22.5-22.5 22.5-12.43 0-22.5-10.07-22.5-22.5M4588.21 1901.9a98.969 98.969 0 0 1 42.97 27.92 99.107 99.107 0 0 1 23.25 45.68l28.07-25.26a99.015 99.015 0 0 1-42.96-27.93 98.883 98.883 0 0 1-23.25-45.67"/>
    <path d="M4623.13 1856.09c0-49.7 40.3-90 90-90 49.71 0 90 40.3 90 90 0 49.71-40.29 90-90 90-49.7 0-90-40.29-90-90h54c0 19.88 16.12 36 36 36s36-16.12 36-36-16.12-36-36-36-36 16.12-36 36"/>
    <path d="M4690.63 1856.09c0-12.42 10.08-22.5 22.5-22.5 12.43 0 22.5 10.08 22.5 22.5 0 12.43-10.07 22.5-22.5 22.5-12.42 0-22.5-10.07-22.5-22.5M4714.36 1775.1c26.04.4 50.3 13.29 65.21 34.65 14.89 21.36 18.62 48.58 10 73.15l8.49 2.98a90.044 90.044 0 0 1 33.43-44.02 90.086 90.086 0 0 1 52.86-16.18l.14-9a80.985 80.985 0 0 1-65.2-34.64 80.987 80.987 0 0 1-10.01-73.16l-8.49-2.98a90.025 90.025 0 0 1-33.43 44.03 90.086 90.086 0 0 1-52.86 16.18"/>
    <path d="M4795.71 1735.69c0-49.7 40.3-90 90-90 49.71 0 90 40.3 90 90s-40.29 90-90 90c-49.7 0-90-40.3-90-90h54c0 19.88 16.13 36 36 36 19.88 0 36-16.12 36-36s-16.12-36-36-36c-19.87 0-36 16.12-36 36"/>
    <path d="M4863.21 1735.69c0-12.42 10.08-22.5 22.5-22.5 12.43 0 22.5 10.08 22.5 22.5 0 12.43-10.07 22.5-22.5 22.5-12.42 0-22.5-10.07-22.5-22.5M4940.32 1653.12a98.982 98.982 0 0 1 33.98 38.36 99.212 99.212 0 0 1 10.24 50.22l34-16.97a99.064 99.064 0 0 1-33.97-38.37 99.065 99.065 0 0 1-10.24-50.22"/>
    <path d="M4983.15 1642.15c0-49.7 40.3-90 90-90 49.71 0 90 40.3 90 90 0 49.71-40.29 90-90 90-49.7 0-90-40.29-90-90h54c0 19.88 16.12 36 36 36s36-16.12 36-36-16.12-36-36-36-36 16.12-36 36"/>
    <path d="M5050.65 1642.15c0-12.42 10.08-22.5 22.5-22.5 12.43 0 22.5 10.08 22.5 22.5 0 12.43-10.07 22.5-22.5 22.5-12.42 0-22.5-10.07-22.5-22.5M5099.22 1565.46a81.018 81.018 0 0 1 51.48 53.29 81.013 81.013 0 0 1-13.4 72.86l7.13 5.5a90.011 90.011 0 0 1 45.26-31.21 90.053 90.053 0 0 1 54.97.95l2.9-8.52a81.003 81.003 0 0 1-51.48-53.28 81.028 81.028 0 0 1 13.4-72.87l-7.13-5.5a90.011 90.011 0 0 1-45.26 31.21 90.052 90.052 0 0 1-54.97-.95"/>
    <path d="M5183.63 1581.64c0-49.7 40.29-90 90-90 49.7 0 90 40.3 90 90s-40.3 90-90 90c-49.71 0-90-40.3-90-90h54c0 19.88 16.12 36 36 36 19.87 0 36-16.12 36-36s-16.13-36-36-36c-19.88 0-36 16.12-36 36"/>
    <path d="M5251.13 1581.64c0-12.43 10.07-22.5 22.5-22.5 12.42 0 22.5 10.07 22.5 22.5s-10.08 22.5-22.5 22.5c-12.43 0-22.5-10.07-22.5-22.5M5353.91 1523.71a99.103 99.103 0 0 1 18.21 47.9 99.005 99.005 0 0 1-8.19 50.59l38.52-3.92a99.103 99.103 0 0 1-18.21-47.9 98.9 98.9 0 0 1 8.19-50.59"/>
    <path d="M5392.73 1560.36c0-49.71 40.3-90 90-90 49.71 0 90 40.29 90 90 0 49.7-40.29 90-90 90-49.7 0-90-40.3-90-90h54c0 19.87 16.13 36 36 36 19.88 0 36-16.13 36-36 0-19.88-16.12-36-36-36-19.87 0-36 16.12-36 36"/>
    <path d="M5460.23 1560.36c0-12.43 10.08-22.5 22.5-22.5 12.43 0 22.5 10.07 22.5 22.5 0 12.42-10.07 22.5-22.5 22.5-12.42 0-22.5-10.08-22.5-22.5M5536.53 1499.8c19.54 17.35 29.5 43.08 26.76 69.07a81.033 81.033 0 0 1-40.61 61.95l4.43 7.83a90.044 90.044 0 0 1 53.84-11.2 89.972 89.972 0 0 1 50.31 22.21l5.98-6.73a80.998 80.998 0 0 1-26.76-69.07 80.966 80.966 0 0 1 40.61-61.95l-4.44-7.84a90.002 90.002 0 0 1-104.15-11"/>
    <path d="M5601.03 1582.38c0-49.71 40.29-90 90-90 49.7 0 90 40.29 90 90 0 49.7-40.3 90-90 90-49.71 0-90-40.3-90-90h54c0 19.87 16.12 36 36 36s36-16.13 36-36c0-19.88-16.12-36-36-36s-36 16.12-36 36"/>
    <path d="M5668.53 1582.38c0-12.43 10.07-22.5 22.5-22.5 12.42 0 22.5 10.07 22.5 22.5 0 12.42-10.08 22.5-22.5 22.5-12.43 0-22.5-10.08-22.5-22.5M5787.93 1562.12a99.03 99.03 0 0 1-2.85 51.17 98.915 98.915 0 0 1-28.06 42.88l36.1 11.86a99.136 99.136 0 0 1 2.85-51.17 99.093 99.093 0 0 1 28.06-42.88"/>
    <path d="M5800.02 1647.78c0-49.71 40.3-90 90-90 49.71 0 90 40.29 90 90 0 49.7-40.29 90-90 90-49.7 0-90-40.3-90-90h54c0 19.88 16.12 36 36 36s36-16.12 36-36-16.12-36-36-36-36 16.12-36 36"/>
    <path d="M5867.52 1647.78c0-12.43 10.08-22.5 22.5-22.5 12.43 0 22.5 10.07 22.5 22.5 0 12.42-10.07 22.5-22.5 22.5-12.42 0-22.5-10.08-22.5-22.5M5963.89 1614.54a81.016 81.016 0 0 1-3.87 74.01 81.021 81.021 0 0 1-62.47 39.88l.84 8.96a90.014 90.014 0 0 1 53.67 11.84 90.066 90.066 0 0 1 36.77 40.84l8.21-3.69a80.995 80.995 0 0 1 3.88-74 80.978 80.978 0 0 1 62.46-39.88l-.84-8.96a89.99 89.99 0 0 1-53.66-11.85 89.982 89.982 0 0 1-36.78-40.84"/>
    <path d="M5980.91 1753.14c0-49.7 40.3-90 90-90s90 40.3 90 90c0 49.71-40.3 90-90 90s-90-40.29-90-90h54c0 19.88 16.12 36 36 36s36-16.12 36-36c0-19.87-16.12-36-36-36s-36 16.13-36 36"/>
    <path d="M6048.41 1753.14c0-12.42 10.07-22.5 22.5-22.5s22.5 10.08 22.5 22.5c0 12.43-10.07 22.5-22.5 22.5s-22.5-10.07-22.5-22.5M6167.78 1773.56a99.007 99.007 0 0 1-23.18 45.7 99.075 99.075 0 0 1-42.93 27.99l28.75 25.79c3.58-17 11.58-32.77 23.18-45.7a98.986 98.986 0 0 1 42.93-27.99"/>
    <path d="M6137.29 1893.45c0-49.7 40.3-90 90-90 49.71 0 90 40.3 90 90s-40.29 90-90 90c-49.7 0-90-40.3-90-90h54c0 19.88 16.12 36 36 36s36-16.12 36-36-16.12-36-36-36-36 16.12-36 36"/>
    <path d="M6204.79 1893.45c0-12.43 10.08-22.5 22.5-22.5 12.43 0 22.5 10.07 22.5 22.5s-10.07 22.5-22.5 22.5c-12.42 0-22.5-10.07-22.5-22.5M6308.27 1891.77a80.998 80.998 0 0 1-32.43 66.52 81.017 81.017 0 0 1-72.97 12.39l-2.71 8.58a89.986 89.986 0 0 1 44.91 31.88 89.978 89.978 0 0 1 17.93 52.07l9-.19a80.994 80.994 0 0 1 32.44-66.52 80.997 80.997 0 0 1 72.96-12.39l2.72-8.58a89.943 89.943 0 0 1-44.91-31.88 89.988 89.988 0 0 1-17.94-52.07"/>
    <path d="M6262.98 2061.34c0-49.7 40.3-90 90-90s90 40.3 90 90-40.3 90-90 90-90-40.3-90-90h54c0 19.88 16.12 36 36 36s36-16.12 36-36-16.12-36-36-36-36 16.12-36 36"/>
    <path d="M6330.48 2061.34c0-12.43 10.07-22.5 22.5-22.5s22.5 10.07 22.5 22.5-10.07 22.5-22.5 22.5-22.5-10.07-22.5-22.5M6434.95 2116.85a99.03 99.03 0 0 1-89.06 43.24l16.67 34.34a99.001 99.001 0 0 1 38.74-33.55 98.936 98.936 0 0 1 50.33-9.68"/>
    <path d="M6354.54 2249.94c0-49.7 40.29-90 90-90 49.7 0 90 40.3 90 90s-40.3 90-90 90c-49.71 0-90-40.3-90-90h54c0 19.88 16.12 36 36 36 19.87 0 36-16.12 36-36s-16.13-36-36-36c-19.88 0-36 16.12-36 36"/>
    <path d="M6422.04 2249.94c0-12.42 10.07-22.5 22.5-22.5 12.42 0 22.5 10.08 22.5 22.5 0 12.43-10.08 22.5-22.5 22.5-12.43 0-22.5-10.07-22.5-22.5M6520.46 2278.16a80.991 80.991 0 0 1-54.6 49.93 81.045 81.045 0 0 1-72.4-15.28l-5.67 6.99a90.002 90.002 0 0 1 30.08 46.16 90.081 90.081 0 0 1-2.46 55.05l8.43 3.14a80.97 80.97 0 0 1 54.61-49.92 80.991 80.991 0 0 1 72.39 15.27l5.67-6.99a90.002 90.002 0 0 1-30.08-46.16 90.012 90.012 0 0 1 2.47-55.05"/>
    <path d="M6409.77 2452.37c0-49.7 40.29-90 90-90 49.7 0 90 40.3 90 90s-40.3 90-90 90c-49.71 0-90-40.3-90-90h54c0 19.88 16.12 36 36 36 19.87 0 36-16.12 36-36s-16.13-36-36-36c-19.88 0-36 16.12-36 36"/>
    <path d="M6477.27 2452.37c0-12.42 10.07-22.5 22.5-22.5 12.42 0 22.5 10.08 22.5 22.5 0 12.43-10.08 22.5-22.5 22.5-12.43 0-22.5-10.07-22.5-22.5M6556.5 2533.5a99.007 99.007 0 0 1-48.17 17.5 99.07 99.07 0 0 1-50.46-8.93l3.3 38.06a99.058 99.058 0 0 1 48.17-17.49 99.07 99.07 0 0 1 50.46 8.93"/>
    <path d="M6427.9 2661.27c0-49.71 40.3-90 90-90 49.71 0 90 40.29 90 90 0 49.7-40.29 90-90 90-49.7 0-90-40.3-90-90h54c0 19.87 16.12 36 36 36s36-16.13 36-36c0-19.88-16.12-36-36-36s-36 16.12-36 36"/>
    <path d="M6495.4 2661.27c0-12.43 10.08-22.5 22.5-22.5 12.43 0 22.5 10.07 22.5 22.5 0 12.42-10.07 22.5-22.5 22.5-12.42 0-22.5-10.08-22.5-22.5M6579.46 2713.9a80.974 80.974 0 0 1-68.45 28.07 81.015 81.015 0 0 1-62.71-39.26l-7.73 4.61a89.978 89.978 0 0 1-8.92 104.53l6.84 5.85a81.005 81.005 0 0 1 68.46-28.07c26 2.22 49.35 16.84 62.7 39.26l7.73-4.6a90.06 90.06 0 0 1-12.34-53.7 90.067 90.067 0 0 1 21.26-50.84"/>
    <path d="M6410.06 2870.34c0-49.7 40.3-90 90-90s90 40.3 90 90-40.3 90-90 90-90-40.3-90-90h54c0 19.88 16.12 36 36 36s36-16.12 36-36-16.12-36-36-36-36 16.12-36 36"/>
    <path d="M6477.56 2870.34c0-12.43 10.07-22.5 22.5-22.5 12.42 0 22.5 10.07 22.5 22.5s-10.08 22.5-22.5 22.5c-12.43 0-22.5-10.07-22.5-22.5M6527.23 2965.54a99.156 99.156 0 0 1-51.24.83 99.067 99.067 0 0 1-44.79-24.9l-9.17 36.57a99.048 99.048 0 0 1 51.24-.83 99.025 99.025 0 0 1 44.79 24.9"/>
    <path d="M6359.2 3073.24c0-49.7 40.3-90 90-90s90 40.3 90 90c0 49.71-40.3 90-90 90s-90-40.29-90-90h54c0 19.88 16.12 36 36 36s36-16.12 36-36-16.12-36-36-36-36 16.12-36 36"/>
    <path d="M6426.7 3073.24c0-12.42 10.07-22.5 22.5-22.5s22.5 10.08 22.5 22.5c0 12.43-10.07 22.5-22.5 22.5s-22.5-10.07-22.5-22.5M4998.68 2196.47a550.035 550.035 0 0 1 105.86-97.01l-86.04-122.87a700.675 700.675 0 0 1 162.09-84.38l51.3 140.96a549.911 549.911 0 0 1 140.18-31.08l-13.08-149.43a700.466 700.466 0 0 1 182.56 7.97l-26.04 147.73a549.87 549.87 0 0 1 136.93 43.17l63.39-135.94a699.952 699.952 0 0 1 154.12 98.18l-96.41 114.91a550.542 550.542 0 0 1 97 105.85l122.87-86.03a700.675 700.675 0 0 1 84.38 162.09l-140.96 51.3a549.911 549.911 0 0 1 31.08 140.18l149.43-13.08a700.466 700.466 0 0 1-7.97 182.56l-147.73-26.04a549.87 549.87 0 0 1-43.17 136.93l135.94 63.39a699.952 699.952 0 0 1-98.18 154.12l-114.91-96.41a550.542 550.542 0 0 1-105.85 97l86.03 122.87a700.675 700.675 0 0 1-162.09 84.38l-51.3-140.96a549.931 549.931 0 0 1-140.17 31.08l13.07 149.43a700.466 700.466 0 0 1-182.56-7.97l26.04-147.73a549.87 549.87 0 0 1-136.93-43.17l-63.39 135.94a699.952 699.952 0 0 1-154.12-98.18l96.42-114.91a550.272 550.272 0 0 1-97.01-105.85l-122.87 86.03a700.675 700.675 0 0 1-84.38-162.09l140.96-51.3a549.931 549.931 0 0 1-31.08-140.17l-149.43 13.07A702.105 702.105 0 0 1 4720 2550c0-40.75 3.56-81.43 10.64-121.55l147.72 26.04a549.87 549.87 0 0 1 43.17-136.93l-135.94-63.39a699.952 699.952 0 0 1 98.18-154.12"/>
  </g>
  <g clip-path="url(#f)" transform="matrix(.13333 0 0 -.13333 0 533.333)">
    <g clip-path="url(#g)" fill="none" stroke-width="5" stroke-miterlimit="10">
      <path d="M5568.91 3092.08l-692.82-400" stroke="#44b064"/>
      <path d="M5571.41 3087.75l-692.82-400" stroke="#45b165"/>
      <path d="M5573.91 3083.42l-692.82-400" stroke="#47b166"/>
      <path d="M5576.41 3079.09l-692.82-400" stroke="#48b267"/>
      <path d="M5578.91 3074.76l-692.82-400" stroke="#49b268"/>
      <path d="M5581.41 3070.43l-692.82-400" stroke="#4ab369"/>
      <path d="M5583.91 3066.1l-692.82-400" stroke="#4bb36a"/>
      <path d="M5586.41 3061.77l-692.82-400" stroke="#4cb46b"/>
      <path d="M5588.91 3057.44l-692.82-400" stroke="#4eb46c"/>
      <path d="M5591.41 3053.11l-692.82-400" stroke="#4fb56d"/>
      <path d="M5593.91 3048.78l-692.82-400" stroke="#50b56e"/>
      <path d="M5596.41 3044.45l-692.82-400" stroke="#51b66f"/>
      <path d="M5598.91 3040.12l-692.82-400" stroke="#52b670"/>
      <path d="M5601.41 3035.79l-692.82-400" stroke="#53b771"/>
      <path d="M5603.91 3031.46l-692.82-400" stroke="#55b772"/>
      <path d="M5606.41 3027.13l-692.82-400" stroke="#56b873"/>
      <path d="M5608.91 3022.8l-692.82-400" stroke="#57b874"/>
      <path d="M5611.41 3018.47l-692.82-400" stroke="#58b975"/>
      <path d="M5613.91 3014.14l-692.82-400" stroke="#59b976"/>
      <path d="M5616.41 3009.81l-692.82-400" stroke="#5bba76"/>
      <path d="M5618.91 3005.48l-692.82-400" stroke="#5cba77"/>
      <path d="M5621.41 3001.15l-692.82-400" stroke="#5dbb78"/>
      <path d="M5623.91 2996.82l-692.82-400" stroke="#5ebb79"/>
      <path d="M5626.41 2992.49l-692.82-400" stroke="#5fbc7a"/>
      <path d="M5628.91 2988.16l-692.82-400" stroke="#60bc7b"/>
      <path d="M5631.41 2983.83l-692.82-400" stroke="#62bd7c"/>
      <path d="M5633.91 2979.5l-692.82-400" stroke="#63bd7d"/>
      <path d="M5636.41 2975.17l-692.82-400" stroke="#64be7e"/>
      <path d="M5638.91 2970.84l-692.82-400" stroke="#65be80"/>
      <path d="M5641.41 2966.51l-692.82-400" stroke="#66bf80"/>
      <path d="M5643.91 2962.18l-692.82-400" stroke="#67bf81"/>
      <path d="M5646.41 2957.85l-692.82-400" stroke="#69c082"/>
      <path d="M5648.91 2953.52l-692.82-400" stroke="#6ac083"/>
      <path d="M5651.41 2949.19l-692.82-400" stroke="#6bc184"/>
      <path d="M5653.91 2944.86l-692.82-400" stroke="#6cc185"/>
      <path d="M5656.41 2940.53l-692.82-400" stroke="#6dc286"/>
      <path d="M5658.91 2936.2l-692.82-400" stroke="#6fc287"/>
      <path d="M5661.41 2931.87l-692.82-400" stroke="#70c388"/>
      <path d="M5663.91 2927.54l-692.82-400" stroke="#71c389"/>
      <path d="M5666.41 2923.21l-692.82-400" stroke="#72c48a"/>
      <path d="M5668.91 2918.88l-692.82-400" stroke="#73c48b"/>
      <path d="M5671.41 2914.55l-692.82-400" stroke="#74c58c"/>
      <path d="M5673.91 2910.21l-692.82-400" stroke="#76c58d"/>
      <path d="M5676.41 2905.88l-692.82-400" stroke="#77c68e"/>
      <path d="M5678.91 2901.55l-692.82-400" stroke="#78c68f"/>
      <path d="M5681.41 2897.22l-692.82-400" stroke="#79c790"/>
      <path d="M5683.91 2892.89l-692.82-400" stroke="#7ac791"/>
      <path d="M5686.41 2888.56l-692.82-400" stroke="#7bc892"/>
      <path d="M5688.91 2884.23l-692.82-400" stroke="#7dc893"/>
      <path d="M5691.41 2879.9l-692.82-400" stroke="#7ec994"/>
      <path d="M5693.91 2875.57l-692.82-400" stroke="#7fc995"/>
      <path d="M5696.41 2871.24l-692.82-400" stroke="#80ca96"/>
      <path d="M5698.91 2866.91l-692.82-400" stroke="#81ca97"/>
      <path d="M5701.41 2862.58l-692.82-400" stroke="#82cb97"/>
      <path d="M5703.91 2858.25l-692.82-400" stroke="#83cb98"/>
      <path d="M5706.41 2853.92l-692.82-400" stroke="#85cc99"/>
      <path d="M5708.91 2849.59l-692.82-400" stroke="#86cc9a"/>
      <path d="M5711.41 2845.26l-692.82-400" stroke="#87cd9b"/>
      <path d="M5713.91 2840.93l-692.82-400" stroke="#88cd9c"/>
      <path d="M5716.41 2836.6l-692.82-400" stroke="#89ce9d"/>
      <path d="M5718.91 2832.27l-692.82-400" stroke="#8ace9e"/>
      <path d="M5721.41 2827.94l-692.82-400" stroke="#8ccf9f"/>
      <path d="M5723.91 2823.61l-692.82-400" stroke="#8dcfa0"/>
      <path d="M5726.41 2819.28l-692.82-400" stroke="#8ed0a1"/>
      <path d="M5728.91 2814.95l-692.82-400" stroke="#8fd0a2"/>
      <path d="M5731.41 2810.62l-692.82-400" stroke="#90d1a3"/>
      <path d="M5733.91 2806.29l-692.82-400" stroke="#92d1a4"/>
      <path d="M5736.41 2801.96l-692.82-400" stroke="#93d2a5"/>
      <path d="M5738.91 2797.63l-692.82-400" stroke="#94d2a6"/>
      <path d="M5741.41 2793.3l-692.82-400" stroke="#95d3a7"/>
      <path d="M5743.91 2788.97l-692.82-400" stroke="#96d3a8"/>
      <path d="M5746.41 2784.64l-692.82-400" stroke="#97d4a9"/>
      <path d="M5748.91 2780.31l-692.82-400" stroke="#99d4aa"/>
      <path d="M5751.41 2775.98l-692.82-400" stroke="#9ad5ab"/>
      <path d="M5753.91 2771.65l-692.82-400" stroke="#9bd5ac"/>
      <path d="M5756.41 2767.32l-692.82-400" stroke="#9cd6ad"/>
      <path d="M5758.91 2762.99l-692.82-400" stroke="#9dd6ae"/>
      <path d="M5761.41 2758.66l-692.82-400" stroke="#9fd7af"/>
      <path d="M5763.91 2754.33l-692.82-400" stroke="#a0d7b0"/>
      <path d="M5766.41 2750l-692.82-400" stroke="#a1d8b1"/>
      <path d="M5768.91 2745.67l-692.82-400" stroke="#a2d8b2"/>
      <path d="M5771.41 2741.34l-692.82-400" stroke="#a3d9b3"/>
      <path d="M5773.91 2737.01l-692.82-400" stroke="#a4d9b4"/>
      <path d="M5776.41 2732.68l-692.82-400" stroke="#a6dab5"/>
      <path d="M5778.91 2728.35l-692.82-400" stroke="#a7dab6"/>
      <path d="M5781.41 2724.02l-692.82-400" stroke="#a8dbb7"/>
      <path d="M5783.91 2719.69l-692.82-400" stroke="#a9dbb8"/>
      <path d="M5786.41 2715.36l-692.82-400" stroke="#aadcb9"/>
      <path d="M5788.91 2711.03l-692.82-400" stroke="#abdcba"/>
      <path d="M5791.41 2706.7l-692.82-400" stroke="#adddbb"/>
      <path d="M5793.91 2702.37l-692.82-400" stroke="#aeddbc"/>
      <path d="M5796.41 2698.04l-692.82-400" stroke="#afdebd"/>
      <path d="M5798.91 2693.71l-692.82-400" stroke="#b0debe"/>
      <path d="M5801.41 2689.38l-692.82-400" stroke="#b1dfbf"/>
      <path d="M5803.91 2685.05l-692.82-400" stroke="#b3dfc0"/>
      <path d="M5806.41 2680.72l-692.82-400" stroke="#b4e0c1"/>
      <path d="M5808.91 2676.39l-692.82-400" stroke="#b5e0c2"/>
      <path d="M5811.41 2672.06l-692.82-400" stroke="#b6e1c3"/>
      <path d="M5813.91 2667.73l-692.82-400" stroke="#b7e1c4"/>
      <path d="M5816.41 2663.4l-692.82-400" stroke="#b8e2c5"/>
      <path d="M5818.91 2659.07l-692.82-400" stroke="#bae2c5"/>
      <path d="M5821.41 2654.74l-692.82-400" stroke="#bbe3c6"/>
      <path d="M5823.91 2650.41l-692.82-400" stroke="#bce3c7"/>
      <path d="M5826.41 2646.08l-692.82-400" stroke="#bde3c8"/>
      <path d="M5828.91 2641.75l-692.82-400" stroke="#bee4c9"/>
      <path d="M5831.41 2637.42l-692.82-400" stroke="#c0e4ca"/>
      <path d="M5833.91 2633.09l-692.82-400" stroke="#c1e5cb"/>
      <path d="M5836.41 2628.76l-692.82-400" stroke="#c2e5cc"/>
      <path d="M5838.91 2624.43l-692.82-400" stroke="#c3e6cd"/>
      <path d="M5841.41 2620.1l-692.82-400" stroke="#c4e6ce"/>
      <path d="M5843.91 2615.77l-692.82-400" stroke="#c5e7cf"/>
      <path d="M5846.41 2611.44l-692.82-400" stroke="#c7e7d0"/>
      <path d="M5848.91 2607.11l-692.82-400" stroke="#c8e8d1"/>
      <path d="M5851.41 2602.78l-692.82-400" stroke="#c9e8d2"/>
      <path d="M5853.91 2598.45l-692.82-400" stroke="#cae9d3"/>
      <path d="M5856.41 2594.12l-692.82-400" stroke="#cbe9d4"/>
      <path d="M5858.91 2589.79l-692.82-400" stroke="#cdead5"/>
      <path d="M5861.41 2585.46l-692.82-400" stroke="#ceead6"/>
      <path d="M5863.91 2581.13l-692.82-400" stroke="#cfebd7"/>
      <path d="M5866.41 2576.8l-692.82-400" stroke="#d0ebd8"/>
      <path d="M5868.91 2572.46l-692.82-400" stroke="#d1ecd9"/>
      <path d="M5871.41 2568.14l-692.82-400" stroke="#d2ecda"/>
      <path d="M5873.91 2563.8l-692.82-400" stroke="#d4eddb"/>
      <path d="M5876.41 2559.47l-692.82-400" stroke="#d5eddc"/>
      <path d="M5878.91 2555.14l-692.82-400" stroke="#d6eedd"/>
      <path d="M5881.41 2550.81l-692.82-400" stroke="#d7eede"/>
      <path d="M5883.91 2546.48l-692.82-400" stroke="#d8efdf"/>
      <path d="M5886.41 2542.15l-692.82-400" stroke="#daefe0"/>
      <path d="M5888.91 2537.82l-692.82-400" stroke="#dbf0e1"/>
      <path d="M5891.41 2533.49l-692.82-400" stroke="#dcf0e2"/>
      <path d="M5893.91 2529.16l-692.82-400" stroke="#ddf1e3"/>
      <path d="M5896.41 2524.83l-692.82-400" stroke="#def1e4"/>
      <path d="M5898.91 2520.5l-692.82-400" stroke="#dff2e5"/>
      <path d="M5901.41 2516.17l-692.82-400" stroke="#e1f2e6"/>
      <path d="M5903.91 2511.84l-692.82-400" stroke="#e2f3e7"/>
      <path d="M5906.41 2507.51l-692.82-400" stroke="#e3f3e8"/>
      <path d="M5908.91 2503.18l-692.82-400" stroke="#e4f4e9"/>
      <path d="M5911.41 2498.85l-692.82-400" stroke="#e5f4ea"/>
      <path d="M5913.91 2494.52l-692.82-400" stroke="#e6f5eb"/>
      <path d="M5916.41 2490.19l-692.82-400" stroke="#e8f5ec"/>
      <path d="M5918.91 2485.86l-692.82-400" stroke="#e9f6ed"/>
      <path d="M5921.41 2481.53l-692.82-400" stroke="#eaf6ee"/>
      <path d="M5923.91 2477.2l-692.82-400" stroke="#ebf7ef"/>
      <path d="M5926.41 2472.87l-692.82-400" stroke="#ecf7f0"/>
      <path d="M5928.91 2468.54l-692.82-400" stroke="#eef8f1"/>
      <path d="M5931.41 2464.21l-692.82-400" stroke="#eff8f2"/>
      <path d="M5933.91 2459.88l-692.82-400" stroke="#f0f9f3"/>
      <path d="M5936.41 2455.55l-692.82-400" stroke="#f1f9f4"/>
      <path d="M5938.91 2451.22l-692.82-400" stroke="#f2faf4"/>
      <path d="M5941.41 2446.89l-692.82-400" stroke="#f3faf5"/>
      <path d="M5943.91 2442.56l-692.82-400" stroke="#f5fbf6"/>
      <path d="M5946.41 2438.23l-692.82-400" stroke="#f6fbf7"/>
      <path d="M5948.91 2433.9l-692.82-400" stroke="#f7fcf8"/>
      <path d="M5951.41 2429.57l-692.82-400" stroke="#f8fcf9"/>
      <path d="M5953.91 2425.24l-692.82-400" stroke="#f9fdfa"/>
      <path d="M5956.41 2420.91l-692.82-400" stroke="#fbfdfb"/>
      <path d="M5958.91 2416.58l-692.82-400" stroke="#fcfefc"/>
      <path d="M5961.41 2412.25l-692.82-400" stroke="#fdfefd"/>
      <path d="M5963.91 2407.92l-692.82-400" stroke="#fefffe"/>
      <path d="M5966.41 2403.59l-692.82-400" stroke="#fff"/>
    </g>
  </g>
  <g clip-path="url(#h)" transform="matrix(.13333 0 0 -.13333 0 533.333)">
    <path d="M5320 2550c0-55.23 44.77-100 100-100s100 44.77 100 100-44.77 100-100 100-100-44.77-100-100" fill="#43b063"/>
  </g>
</svg>
